<?xml version="1.0" encoding="UTF-8" standalone="no"?>
<!-- Created with Inkscape (http://www.inkscape.org/) -->

<svg
   width="140mm"
   height="60mm"
   viewBox="0 0 140 60"
   version="1.1"
   id="svg5"
   inkscape:version="1.1 (c68e22c387, 2021-05-23)"
   sodipodi:docname="LogoProjeto.svg"
   xmlns:inkscape="http://www.inkscape.org/namespaces/inkscape"
   xmlns:sodipodi="http://sodipodi.sourceforge.net/DTD/sodipodi-0.dtd"
   xmlns="http://www.w3.org/2000/svg"
   xmlns:svg="http://www.w3.org/2000/svg">
  <sodipodi:namedview
     id="namedview7"
     pagecolor="#505050"
     bordercolor="#eeeeee"
     borderopacity="1"
     inkscape:pageshadow="0"
     inkscape:pageopacity="0"
     inkscape:pagecheckerboard="0"
     inkscape:document-units="mm"
     showgrid="false"
     width="70mm"
     inkscape:zoom="0.99775533"
     inkscape:cx="333.74916"
     inkscape:cy="270.1063"
     inkscape:window-width="1366"
     inkscape:window-height="745"
     inkscape:window-x="-8"
     inkscape:window-y="-8"
     inkscape:window-maximized="1"
     inkscape:current-layer="text3090" />
  <defs
     id="defs2">
    <rect
       x="116.26097"
       y="238.53543"
       width="603.35431"
       height="380.85489"
       id="rect3092" />
  </defs>
  <g
     inkscape:label="Camada 1"
     inkscape:groupmode="layer"
     id="layer1">
    <g
       aria-label="Ye  box"
       transform="matrix(0.47432824,0,0,0.47432824,-40.549459,-112.22054)"
       id="text3090"
       style="font-size:64px;line-height:1.25;font-family:'Bell MT';-inkscape-font-specification:'Bell MT';white-space:pre;shape-inside:url(#rect3092);fill:#ffff00">
      <path
         d="m 165.09503,259.38699 q -1,1.58333 -2.66666,4.87499 l -7.16667,17.70833 q -4.16666,9.95833 -7.83333,17.41666 l -5.20833,9.29166 -2.20833,4.5 q -1.375,2.41667 -3.70833,2.41667 -1.625,0 -2.95834,-1.20834 -1.33333,-1.20833 -1.33333,-2.99999 0,-1.41667 3.91667,-8.875 l 5.125,-9.375 q -7.45834,-9.62499 -9.66667,-15.16666 -1.875,-4.70833 -6.24999,-11.29166 -6,-9 -7.04167,-10.875 -0.625,-1.12499 -0.625,-2.24999 0,-1.79167 1.29167,-3 1.33333,-1.25 3,-1.25 2.04166,0 3.41666,1.95833 l 3.33333,5.16666 q 4.41667,6.54167 5.83333,8.91667 3.125,5.125 4.875,9.49999 1.375,3.45834 5.875,9.45833 l 9.54166,-23.24999 q 1.625,-2.875 4.5,-8.87499 1.16667,-2.83334 3.875,-2.83334 1.66667,0 2.95833,1.16667 1.33333,1.16667 1.33333,3 0,1.91667 -2.20833,5.875 z"
         style="font-size:85.3333px"
         id="path14554" />
      <path
         d="m 195.72002,314.5953 q -9.41667,0 -15.25,-4.70833 -6.37499,-5.20834 -6.37499,-14.58333 0,-10.83333 5.24999,-18.16666 5.70834,-8 15.25,-8 6.91666,0 11.29166,2.33334 5.375,2.87499 5.375,8.83332 0,4.16667 -4.70833,7.58333 -2.08334,1.5 -8.83333,4.66667 l -15.91666,7.54166 q 2.33333,3.45834 5.79166,5.20833 3.5,1.75 8.125,1.75 2.875,0 6.74999,-1.08333 4.91667,-1.375 6.33334,-3.58333 1.41666,-2.25 3.04166,-2.25 1.45833,0 2.58333,1.125 1.16667,1.08333 1.16667,2.54166 0,4.625 -7.45833,7.95833 -6.375,2.83334 -12.41666,2.83334 z m -1.125,-37.95832 q -5.08333,0 -8.45833,3.95833 -3.375,3.91667 -5.04167,11.83333 l 12.79166,-6.08333 q 7.54167,-3.66667 10.75,-6.375 -3.58333,-3.33333 -10.04166,-3.33333 z"
         style="font-size:85.3333px"
         id="path14556" />
      <path
         d="m 259.76349,315.10925 q -4.78125,0 -8.6875,-1.875 -1,1.5 -2.4375,1.5 -1.1875,0 -2.03125,-0.84375 -0.8125,-0.8125 -0.8125,-2.0625 0,-0.8125 0.0625,-2.40625 0.0937,-1.59375 0.0937,-2.40625 0,-3.3125 -0.1875,-9.90625 -0.15625,-6.625 -0.15625,-9.9375 0,-2.28125 0.0312,-8.625 0.0312,-6.375 0.0312,-8.6875 0,-1.875 0.78125,-3.375 1.03125,-1.90625 2.84375,-1.90625 2.34375,0 2.34375,2.71875 0,0.4375 -0.15625,1.28125 -0.15625,0.84375 -0.15625,1.28125 l -0.0937,6.84375 -0.0625,7.96875 q 2.71875,-1.84375 5.15625,-2.75 2.46875,-0.9375 4.625,-0.9375 6.71875,0 10.90625,5.15625 3.9375,4.84375 3.9375,11.90625 0,7.125 -4.59375,12.09375 -4.59375,4.96875 -11.4375,4.96875 z m 1.1875,-28.21875 q -2.5625,0 -5.25,1.4375 -1.3125,0.71875 -4.5,3.09375 l -0.0625,5.40625 0.0312,4.875 0.0312,5.125 q 1.5,0.6875 4.21875,1.75 1.9375,0.59375 4.34375,0.59375 4.53125,0 7.4375,-3.1875 2.90625,-3.1875 2.90625,-7.9375 0,-4.65625 -2.34375,-7.78125 -2.53125,-3.375 -6.8125,-3.375 z"
         style="font-family:'Comic Sans MS';-inkscape-font-specification:'Comic Sans MS'"
         id="path14558" />
      <path
         d="m 294.85724,315.6405 q -5.25,0 -9.03125,-3.875 -4.21875,-4.3125 -4.4375,-11.59375 -0.1875,-7.0625 3.5625,-12.4375 4.375,-6.34375 12.1875,-6.34375 6.25,0 9.46875,5.71875 2.5625,4.625 2.46875,11.125 -0.0937,6.9375 -3.625,11.84375 -4,5.5625 -10.59375,5.5625 z m 1.875,-27.90625 q -4.59375,-0.0312 -7.15625,4.375 -2.03125,3.53125 -2.03125,8.0625 0,4.53125 2.46875,7.0625 2.0625,2.09375 4.84375,2.09375 3.25,0 5.59375,-2.375 2.65625,-2.625 2.8125,-7.09375 0.4375,-12.09375 -6.53125,-12.125 z"
         style="font-family:'Comic Sans MS';-inkscape-font-specification:'Comic Sans MS'"
         id="path14560" />
      <path
         d="m 345.51349,286.98425 -4.5625,4.28125 -5.5625,5.53125 10.1875,13.3125 q 0.78125,1 0.78125,1.96875 0,1.21875 -0.9375,2.15625 -0.9375,0.9375 -2.125,0.9375 -1.1875,0 -2.15625,-1.15625 -2.875,-3.34375 -10.125,-12.875 l -6.09375,6.28125 q -1.84375,1.65625 -5.375,5.15625 -1,1.125 -2.15625,1.125 -1.1875,0 -2.125,-0.9375 -0.90625,-0.9375 -0.90625,-2.15625 0,-0.96875 0.78125,-1.96875 0.875,-1.15625 2.71875,-2.78125 2.15625,-1.90625 2.84375,-2.625 l 6.65625,-6.96875 -4.09375,-5.90625 q -2.46875,-3.53125 -4.3125,-5.15625 -1.1875,-1.0625 -1.1875,-2.3125 0,-1.25 0.875,-2.21875 0.90625,-0.96875 2.0625,-0.96875 1.84375,0 5.5625,4.8125 l 5.40625,7.46875 6.125,-5.625 q 3.8125,-3.59375 5.15625,-5.625 1,-1.46875 2.375,-1.46875 1.21875,0 2.15625,0.90625 0.9375,0.90625 0.9375,2.09375 0,1.71875 -2.90625,4.71875 z"
         style="font-family:'Comic Sans MS';-inkscape-font-specification:'Comic Sans MS'"
         id="path14562" />
    </g>
    <path
       style="fill:none;stroke:#d7ce00;stroke-width:1;stroke-linecap:butt;stroke-linejoin:miter;stroke-miterlimit:4;stroke-dasharray:none;stroke-opacity:1"
       d="m 14.054465,14.849999 0.795536,25.191958 33.677677,-0.26517 28.639281,12.46339 -15.380352,-12.99375 h 9.546422 L 70.802679,8.2205353"
       id="path7279" />
  </g>
</svg>
